<svg width="136" height="136" viewBox="0 0 136 136" fill="none" xmlns="http://www.w3.org/2000/svg">
<rect x="0.00488281" y="0.496094" width="135" height="135" fill="#EAEAEA"/>
<path d="M47.1209 41.2665C47.2257 41.1235 47.3058 40.9738 47.4139 40.8185C51.291 34.4458 53.5395 28.6372 53.5395 28.6372C50.0718 25.7333 40.9514 17.5498 37.6627 14.7729C32.1267 15.962 22.5946 17.6599 16.9808 18.8413C16.9808 18.8413 12.1027 50.0109 26.3149 57.1233C34.1117 57.5801 40.7942 50.7216 45.6134 43.614" fill="#6F6F6F"/>
<path d="M26.1637 57.6871C26.1637 57.6871 26.0519 57.6571 26.0088 57.6192C11.6491 50.362 16.2066 20.0411 16.4057 18.7517C16.4434 18.5117 16.6235 18.3361 16.8518 18.2788C19.6025 17.6994 23.3492 16.9788 26.9802 16.293C30.7832 15.5611 34.7111 14.8101 37.5337 14.2105C37.7025 14.1767 37.892 14.2143 38.0304 14.3436C39.647 15.7114 42.6078 18.3215 45.741 21.083C48.8832 23.8601 52.1457 26.7353 53.8948 28.2045C54.1359 28.348 54.1636 28.5924 54.0663 28.856C54.0499 28.9174 51.7601 34.7808 47.9053 41.12L47.7716 41.3211C47.7204 41.4127 47.6568 41.501 47.5932 41.5893C47.4058 41.8418 47.0558 41.906 46.7841 41.7279C46.5248 41.5531 46.449 41.1905 46.6397 40.9257C46.6843 40.8586 46.7322 40.7793 46.7801 40.7L46.9171 40.4866C50.1685 35.1573 52.2776 30.1671 52.8332 28.7889C50.9332 27.1871 47.9111 24.508 44.9718 21.9169C41.9804 19.2723 39.1489 16.7759 37.5016 15.3735C34.679 15.9731 30.876 16.705 27.1888 17.4021C23.7514 18.0608 20.1891 18.7386 17.4948 19.3068C16.9841 23.0008 13.7356 50.0259 26.4541 56.5537C32.6668 56.8625 38.9474 52.3976 45.1133 43.2944C45.2916 43.0262 45.654 42.9653 45.9133 43.1401C46.185 43.3182 46.2484 43.6775 46.0734 43.9334C39.621 53.4601 32.9517 58.0841 26.2696 57.6891C26.2324 57.6791 26.1951 57.6691 26.1579 57.6592L26.1637 57.6871Z" fill="#6F6F6F"/>
<path d="M17.6475 42.043L37.4773 49.4495C37.4773 49.4495 35.2985 54.3026 34.4692 54.765C33.6399 55.2273 28.1438 57.5591 26.3272 56.8881C24.5105 56.217 17.0899 48.5943 17.6475 42.043Z" fill="#EAEAEA"/>
<path d="M26.1637 57.6871C26.1637 57.6871 26.0519 57.6571 26.0088 57.6192C11.6491 50.362 16.2066 20.0411 16.4057 18.7517C16.4434 18.5117 16.6235 18.3361 16.8518 18.2788C19.6025 17.6994 23.3492 16.9788 26.9802 16.293C30.7832 15.5611 34.7111 14.8101 37.5337 14.2105C37.7025 14.1767 37.892 14.2143 38.0304 14.3436C39.647 15.7114 42.6078 18.3215 45.741 21.083C48.8832 23.8601 52.1457 26.7353 53.8948 28.2045C54.1359 28.348 54.1636 28.5924 54.0663 28.856C54.0499 28.9174 51.7601 34.7808 47.9053 41.12L47.7716 41.3211C47.7204 41.4127 47.6568 41.501 47.5932 41.5893C47.4058 41.8418 47.0558 41.906 46.7841 41.7279C46.5248 41.5531 46.449 41.1905 46.6397 40.9257C46.6843 40.8586 46.7322 40.7793 46.7801 40.7L46.9171 40.4866C50.1685 35.1573 52.2776 30.1671 52.8332 28.7889C50.9332 27.1871 47.9111 24.508 44.9718 21.9169C41.9804 19.2723 39.1489 16.7759 37.5016 15.3735C34.679 15.9731 30.876 16.705 27.1888 17.4021C23.7514 18.0608 20.1891 18.7386 17.4948 19.3068C16.9841 23.0008 13.7356 50.0259 26.4541 56.5537C32.6668 56.8625 38.9474 52.3976 45.1133 43.2944C45.2916 43.0262 45.654 42.9653 45.9133 43.1401C46.185 43.3182 46.2484 43.6775 46.0734 43.9334C39.621 53.4601 32.9517 58.0841 26.2696 57.6891C26.2324 57.6791 26.1951 57.6691 26.1579 57.6592L26.1637 57.6871Z" fill="#6F6F6F"/>
<path d="M42.5331 37.0874L47.9001 41.1979L48.2535 43.3067L39.6036 43.4507L42.5331 37.0874Z" fill="#EAEAEA"/>
<path d="M26.5563 56.2268C26.5563 56.2268 26.4445 56.1968 26.4014 56.1589C12.8865 49.3255 17.172 20.8143 17.3637 19.6019C17.4014 19.3619 17.5816 19.1863 17.8099 19.129C20.3917 18.5834 23.9259 17.9111 27.3351 17.2581C30.8974 16.5802 34.5879 15.8708 37.2417 15.305C37.4105 15.2712 37.6001 15.3088 37.7384 15.4381C39.2598 16.7145 42.0482 19.1731 44.9841 21.7765C47.9449 24.3865 51.001 27.0879 52.6425 28.4624C52.8678 28.6149 52.9079 28.8626 52.8139 29.1139C52.7975 29.1753 50.6437 34.6802 47.0217 40.6473L46.9037 40.8395C46.8525 40.9311 46.7922 41.0071 46.7411 41.0987C46.566 41.3546 46.2004 41.4278 45.932 41.2374C45.6727 41.0626 45.5968 40.7 45.7876 40.4351C45.8321 40.3681 45.8767 40.301 45.9246 40.2217L46.0583 40.0206C49.0835 35.0388 51.0632 30.3825 51.6057 29.0534C49.8382 27.553 46.9976 25.041 44.2274 22.6137C41.4299 20.1395 38.7707 17.7946 37.2187 16.4836C34.5806 17.0405 31.0026 17.7273 27.5371 18.3917C24.3124 19.002 20.9718 19.6472 18.4495 20.1693C17.9626 23.7249 14.9572 48.9983 26.8558 55.109C32.6762 55.3917 38.5633 51.2031 44.3536 42.6575C44.5319 42.3893 44.8943 42.3284 45.1536 42.5032C45.4253 42.6813 45.4887 43.0406 45.3137 43.2965C39.2402 52.2533 32.9735 56.6166 26.6713 56.2444C26.6341 56.2344 26.5968 56.2244 26.5596 56.2145L26.5563 56.2268Z" fill="#EAEAEA"/>
<path d="M26.1637 57.6871C26.1637 57.6871 26.0519 57.6571 26.0088 57.6192C11.6491 50.362 16.2066 20.0411 16.4057 18.7517C16.4434 18.5117 16.6235 18.3361 16.8518 18.2788C19.6025 17.6994 23.3492 16.9788 26.9802 16.293C30.7832 15.5611 34.7111 14.8101 37.5337 14.2105C37.7025 14.1767 37.892 14.2143 38.0304 14.3436C39.647 15.7114 42.6078 18.3215 45.741 21.083C48.8832 23.8601 52.1457 26.7353 53.8948 28.2045C54.1359 28.348 54.1636 28.5924 54.0663 28.856C54.0499 28.9174 51.7601 34.7808 47.9053 41.12L47.7716 41.3211C47.7204 41.4127 47.6568 41.501 47.5932 41.5893C47.4058 41.8418 47.0558 41.906 46.7841 41.7279C46.5248 41.5531 46.449 41.1905 46.6397 40.9257C46.6843 40.8586 46.7322 40.7793 46.7801 40.7L46.9171 40.4866C50.1685 35.1573 52.2776 30.1671 52.8332 28.7889C50.9332 27.1871 47.9111 24.508 44.9718 21.9169C41.9804 19.2723 39.1489 16.7759 37.5016 15.3735C34.679 15.9731 30.876 16.705 27.1888 17.4021C23.7514 18.0608 20.1891 18.7386 17.4948 19.3068C16.9841 23.0008 13.7356 50.0259 26.4541 56.5537C32.6668 56.8625 38.9474 52.3976 45.1133 43.2944C45.2916 43.0262 45.654 42.9653 45.9133 43.1401C46.185 43.3182 46.2484 43.6775 46.0734 43.9334C39.621 53.4601 32.9517 58.0841 26.2696 57.6891C26.2324 57.6791 26.1951 57.6691 26.1579 57.6592L26.1637 57.6871Z" fill="#6F6F6F"/>
<path d="M40.2636 44.653C40.0401 44.5931 39.8528 44.3981 39.8375 44.157C39.8015 43.8446 40.036 43.5652 40.3637 43.5345L47.8683 42.8466C47.8683 42.8466 47.9592 42.8052 47.9848 42.7594C48.0104 42.7136 47.9863 42.6544 47.9399 42.6289L42.3615 38.2643C42.1088 38.0649 42.0702 37.7123 42.2576 37.4597C42.4575 37.2105 42.8166 37.1619 43.0693 37.3613L48.6477 41.7259C49.067 42.0488 49.2432 42.5831 49.0926 43.0957C48.9452 43.5959 48.5039 43.9516 47.9859 43.9971L40.4813 44.685C40.4127 44.6929 40.3349 44.6852 40.2728 44.6686L40.2636 44.653Z" fill="#6F6F6F"/>
<path d="M37.6448 49.7692L38.2615 48.2626L40.0051 43.9906L42.7108 37.3698C42.8848 36.9688 43.0091 36.5545 43.1177 36.1492C44.4276 31.2607 41.8814 26.0104 37.0076 24.0331C31.7279 21.8812 25.7215 24.3791 23.578 29.5971L20.3627 37.4241L20.4271 37.2834C20.4271 37.2834 19.2416 40.2174 17.435 42.7874" fill="#EAEAEA"/>
<path d="M38.1831 49.9932L37.1017 49.5587L42.1801 37.1626C42.3318 36.7951 42.4586 36.421 42.5673 36.0157C43.8212 31.336 41.3451 26.4204 36.8057 24.5854C31.8391 22.5569 26.1494 24.9158 24.1254 29.8367L20.9745 37.523C20.9291 37.6425 19.7379 40.5486 17.9122 43.1399L16.9587 42.4763C18.4854 40.3052 19.5739 37.8323 19.8287 37.2292L23.0473 29.3899C25.307 23.8871 31.6583 21.2446 37.2385 23.5166C42.3169 25.575 45.0902 31.0705 43.6849 36.3152C43.5631 36.7696 43.4231 37.1928 43.2458 37.6061L38.1674 50.0022L38.1831 49.9932Z" fill="#6F6F6F"/>
<path d="M36.0385 34.5451C36.8717 33.3729 38.7768 33.9624 38.8592 35.3931C38.8814 35.8071 38.8349 36.2291 38.6981 36.64C38.5325 37.1091 38.2559 37.4957 37.9395 37.8322C36.858 38.9378 34.9574 38.0336 35.2314 36.5141C35.2691 36.2741 35.335 36.0285 35.4322 35.7649C35.5978 35.2959 35.8123 34.8926 36.051 34.5484L36.0385 34.5451Z" fill="#6F6F6F"/>
<path d="M32.6593 56.4018C32.5227 56.3652 32.3993 56.2794 32.3263 56.1545C32.1587 55.8858 32.226 55.5353 32.4996 55.3585C35.6032 53.4124 37.3201 49.0411 37.3333 48.9919C37.4528 48.6949 37.7853 48.547 38.0858 48.667C38.3864 48.787 38.5375 49.1172 38.418 49.4142C38.3405 49.6041 36.5428 54.1775 33.1152 56.3396C32.9705 56.4325 32.805 56.454 32.656 56.414L32.6593 56.4018Z" fill="#6F6F6F"/>
<path d="M34.8975 32.6462C34.7857 32.6163 34.6714 32.5461 34.5918 32.4458C34.3928 32.195 34.4353 31.8378 34.6874 31.6421C34.7535 31.594 36.181 30.4889 37.9108 30.6891C38.9437 30.8079 39.8367 31.3499 40.5804 32.2996C40.7794 32.5504 40.7369 32.9076 40.4848 33.1033C40.2327 33.2991 39.8719 33.255 39.6729 33.0042C38.9076 32.0356 37.9719 31.6533 36.9155 31.8705C36.0592 32.036 35.4195 32.5359 35.4071 32.5326C35.2558 32.6501 35.0746 32.6805 34.9008 32.6339L34.8975 32.6462Z" fill="#6F6F6F"/>
<path d="M84.842 106.767C84.7371 106.624 84.6571 106.474 84.5489 106.318C80.6719 99.9458 78.4234 94.1372 78.4234 94.1372C81.8911 91.2333 91.0115 83.0498 94.3002 80.2729C99.8362 81.462 109.368 83.1599 114.982 84.3413C114.982 84.3413 119.86 115.511 105.648 122.623C97.8512 123.08 91.1687 116.222 86.3495 109.114" fill="#6F6F6F"/>
<path d="M105.799 123.187C105.799 123.187 105.911 123.157 105.954 123.119C120.314 115.862 115.756 85.5411 115.557 84.2517C115.519 84.0117 115.339 83.8361 115.111 83.7788C112.36 83.1994 108.614 82.4788 104.983 81.793C101.18 81.0611 97.2518 80.3101 94.4292 79.7105C94.2604 79.6767 94.0709 79.7143 93.9325 79.8436C92.3159 81.2114 89.3551 83.8215 86.2219 86.583C83.0796 89.3601 79.8172 92.2353 78.0681 93.7045C77.827 93.8481 77.7993 94.0924 77.8966 94.356C77.913 94.4174 80.2028 100.281 84.0576 106.62L84.1913 106.821C84.2425 106.913 84.3061 107.001 84.3697 107.089C84.5571 107.342 84.9071 107.406 85.1788 107.228C85.438 107.053 85.5139 106.691 85.3232 106.426C85.2786 106.359 85.2307 106.279 85.1828 106.2L85.0458 105.987C81.7944 100.657 79.6853 95.6671 79.1297 94.2889C81.0297 92.6871 84.0518 90.008 86.9911 87.4169C89.9825 84.7723 92.814 82.2759 94.4613 80.8735C97.2839 81.4731 101.087 82.205 104.774 82.9021C108.211 83.5608 111.774 84.2386 114.468 84.8068C114.979 88.5008 118.227 115.526 105.509 122.054C99.2961 122.362 93.0155 117.898 86.8496 108.794C86.6713 108.526 86.3089 108.465 86.0496 108.64C85.7779 108.818 85.7145 109.178 85.8895 109.433C92.3419 118.96 99.0112 123.584 105.693 123.189C105.731 123.179 105.768 123.169 105.805 123.159L105.799 123.187Z" fill="#6F6F6F"/>
<path d="M114.315 107.543L94.4856 114.95C94.4856 114.95 96.6644 119.803 97.4937 120.265C98.323 120.727 103.819 123.059 105.636 122.388C107.452 121.717 114.873 114.094 114.315 107.543Z" fill="#EAEAEA"/>
<path d="M105.799 123.187C105.799 123.187 105.911 123.157 105.954 123.119C120.314 115.862 115.756 85.5411 115.557 84.2517C115.519 84.0117 115.339 83.8361 115.111 83.7788C112.36 83.1994 108.614 82.4788 104.983 81.793C101.18 81.0611 97.2518 80.3101 94.4292 79.7105C94.2604 79.6767 94.0709 79.7143 93.9325 79.8436C92.3159 81.2114 89.3551 83.8215 86.2219 86.583C83.0796 89.3601 79.8172 92.2353 78.0681 93.7045C77.827 93.8481 77.7993 94.0924 77.8966 94.356C77.913 94.4174 80.2028 100.281 84.0576 106.62L84.1913 106.821C84.2425 106.913 84.3061 107.001 84.3697 107.089C84.5571 107.342 84.9071 107.406 85.1788 107.228C85.438 107.053 85.5139 106.691 85.3232 106.426C85.2786 106.359 85.2307 106.279 85.1828 106.2L85.0458 105.987C81.7944 100.657 79.6853 95.6671 79.1297 94.2889C81.0297 92.6871 84.0518 90.008 86.9911 87.4169C89.9825 84.7723 92.814 82.2759 94.4613 80.8735C97.2839 81.4731 101.087 82.205 104.774 82.9021C108.211 83.5608 111.774 84.2386 114.468 84.8068C114.979 88.5008 118.227 115.526 105.509 122.054C99.2961 122.362 93.0155 117.898 86.8496 108.794C86.6713 108.526 86.3089 108.465 86.0496 108.64C85.7779 108.818 85.7145 109.178 85.8895 109.433C92.3419 118.96 99.0112 123.584 105.693 123.189C105.731 123.179 105.768 123.169 105.805 123.159L105.799 123.187Z" fill="#6F6F6F"/>
<path d="M89.4298 102.587L84.0627 106.698L83.7094 108.807L92.3593 108.951L89.4298 102.587Z" fill="#EAEAEA"/>
<path d="M105.407 121.727C105.407 121.727 105.518 121.697 105.561 121.659C119.076 114.825 114.791 86.3143 114.599 85.1019C114.561 84.8619 114.381 84.6863 114.153 84.629C111.571 84.0834 108.037 83.4111 104.628 82.7581C101.065 82.0802 97.375 81.3708 94.7212 80.805C94.5524 80.7712 94.3628 80.8088 94.2244 80.9381C92.7031 82.2145 89.9147 84.6731 86.9788 87.2765C84.018 89.8865 80.9619 92.5879 79.3204 93.9624C79.0951 94.1149 79.055 94.3626 79.1489 94.6139C79.1654 94.6753 81.3192 100.18 84.9412 106.147L85.0592 106.34C85.1104 106.431 85.1707 106.507 85.2218 106.599C85.3969 106.855 85.7625 106.928 86.0309 106.737C86.2902 106.563 86.3661 106.2 86.1753 105.935C86.1308 105.868 86.0862 105.801 86.0383 105.722L85.9046 105.521C82.8794 100.539 80.8997 95.8825 80.3572 94.5534C82.1247 93.053 84.9653 90.541 87.7355 88.1137C90.533 85.6395 93.1922 83.2946 94.7442 81.9836C97.3823 82.5405 100.96 83.2273 104.426 83.8917C107.651 84.502 110.991 85.1472 113.513 85.6693C114 89.2249 117.006 114.498 105.107 120.609C99.2867 120.892 93.3995 116.703 87.6093 108.157C87.431 107.889 87.0686 107.828 86.8093 108.003C86.5376 108.181 86.4742 108.541 86.6492 108.796C92.7227 117.753 98.9894 122.117 105.292 121.744C105.329 121.734 105.366 121.724 105.403 121.714L105.407 121.727Z" fill="#EAEAEA"/>
<path d="M105.799 123.187C105.799 123.187 105.911 123.157 105.954 123.119C120.314 115.862 115.756 85.5411 115.557 84.2517C115.519 84.0117 115.339 83.8361 115.111 83.7788C112.36 83.1994 108.614 82.4788 104.983 81.793C101.18 81.0611 97.2518 80.3101 94.4292 79.7105C94.2604 79.6767 94.0709 79.7143 93.9325 79.8436C92.3159 81.2114 89.3551 83.8215 86.2219 86.583C83.0796 89.3601 79.8172 92.2353 78.0681 93.7045C77.827 93.8481 77.7993 94.0924 77.8966 94.356C77.913 94.4174 80.2028 100.281 84.0576 106.62L84.1913 106.821C84.2425 106.913 84.3061 107.001 84.3697 107.089C84.5571 107.342 84.9071 107.406 85.1788 107.228C85.438 107.053 85.5139 106.691 85.3232 106.426C85.2786 106.359 85.2307 106.279 85.1828 106.2L85.0458 105.987C81.7944 100.657 79.6853 95.6671 79.1297 94.2889C81.0297 92.6871 84.0518 90.008 86.9911 87.4169C89.9825 84.7723 92.814 82.2759 94.4613 80.8735C97.2839 81.4731 101.087 82.205 104.774 82.9021C108.211 83.5608 111.774 84.2386 114.468 84.8068C114.979 88.5008 118.227 115.526 105.509 122.054C99.2961 122.362 93.0155 117.898 86.8496 108.794C86.6713 108.526 86.3089 108.465 86.0496 108.64C85.7779 108.818 85.7145 109.178 85.8895 109.433C92.3419 118.96 99.0112 123.584 105.693 123.189C105.731 123.179 105.768 123.169 105.805 123.159L105.799 123.187Z" fill="#6F6F6F"/>
<path d="M91.6993 110.153C91.9228 110.093 92.1101 109.898 92.1254 109.657C92.1614 109.345 91.9269 109.065 91.5992 109.034L84.0946 108.347C84.0946 108.347 84.0036 108.305 83.9781 108.259C83.9525 108.214 83.9766 108.154 84.0229 108.129L89.6014 103.764C89.8541 103.565 89.8927 103.212 89.7053 102.96C89.5054 102.71 89.1463 102.662 88.8936 102.861L83.3152 107.226C82.8959 107.549 82.7197 108.083 82.8703 108.596C83.0177 109.096 83.459 109.452 83.977 109.497L91.4816 110.185C91.5502 110.193 91.628 110.185 91.6901 110.169L91.6993 110.153Z" fill="#6F6F6F"/>
<path d="M94.3181 115.269L93.7014 113.763L91.9578 109.491L89.2521 102.87C89.0781 102.469 88.9538 102.055 88.8452 101.649C87.5353 96.7607 90.0814 91.5104 94.9553 89.5331C100.235 87.3812 106.241 89.8791 108.385 95.0971L111.6 102.924L111.536 102.783C111.536 102.783 112.721 105.717 114.528 108.287" fill="#EAEAEA"/>
<path d="M93.7798 115.493L94.8612 115.059L89.7828 102.663C89.6311 102.295 89.5042 101.921 89.3956 101.516C88.1417 96.836 90.6178 91.9204 95.1572 90.0854C100.124 88.0569 105.814 90.4158 107.838 95.3367L110.988 103.023C111.034 103.143 112.225 106.049 114.051 108.64L115.004 107.976C113.477 105.805 112.389 103.332 112.134 102.729L108.916 94.8899C106.656 89.3871 100.305 86.7446 94.7244 89.0166C89.646 91.075 86.8727 96.5705 88.278 101.815C88.3998 102.27 88.5398 102.693 88.7171 103.106L93.7955 115.502L93.7798 115.493Z" fill="#6F6F6F"/>
<path d="M95.9243 100.045C95.0912 98.8729 93.1861 99.4624 93.1037 100.893C93.0815 101.307 93.128 101.729 93.2647 102.14C93.4304 102.609 93.707 102.996 94.0234 103.332C95.1049 104.438 97.0055 103.534 96.7314 102.014C96.6938 101.774 96.6279 101.528 96.5307 101.265C96.3651 100.796 96.1505 100.393 95.9119 100.048L95.9243 100.045Z" fill="#6F6F6F"/>
<path d="M99.3036 121.902C99.4402 121.865 99.5636 121.779 99.6366 121.655C99.8042 121.386 99.7369 121.035 99.4633 120.858C96.3597 118.912 94.6428 114.541 94.6296 114.492C94.5101 114.195 94.1776 114.047 93.877 114.167C93.5765 114.287 93.4253 114.617 93.5449 114.914C93.6224 115.104 95.4201 119.678 98.8477 121.84C98.9924 121.932 99.1579 121.954 99.3069 121.914L99.3036 121.902Z" fill="#6F6F6F"/>
<path d="M97.0654 98.1462C97.1771 98.1163 97.2915 98.0461 97.3711 97.9458C97.57 97.695 97.5276 97.3378 97.2755 97.1421C97.2093 97.094 95.7819 95.9889 94.0521 96.1891C93.0191 96.3079 92.1262 96.8499 91.3825 97.7996C91.1835 98.0504 91.226 98.4076 91.4781 98.6033C91.7301 98.7991 92.091 98.755 92.29 98.5042C93.0553 97.5356 93.991 97.1533 95.0474 97.3705C95.9037 97.536 96.5434 98.0359 96.5558 98.0326C96.7071 98.1501 96.8882 98.1805 97.0621 98.1339L97.0654 98.1462Z" fill="#6F6F6F"/>
<path d="M21.2088 99.8812L19.7994 94.6214C19.0393 91.7844 20.8926 87.0318 25.2034 86.0794C29.5143 85.127 33.0837 87.7048 33.8437 90.5415L35.3323 96.0968" stroke="#6F6F6F" stroke-width="3"/>
<rect x="15.7654" y="101.336" width="26" height="21.6964" rx="5" transform="rotate(-15 15.7654 101.336)" fill="#6F6F6F"/>
<path d="M93.3483 26.2133L94.7577 20.9534C95.5179 18.1165 99.4992 14.9272 103.709 16.2578C107.918 17.5885 109.721 21.6056 108.96 24.4423L107.472 29.9977" stroke="#6F6F6F" stroke-width="3"/>
<rect x="87.9055" y="24.7539" width="26" height="21.6964" rx="5" transform="rotate(15 87.9055 24.7539)" fill="#6F6F6F"/>
</svg>

