<?xml version="1.0" encoding="UTF-8"?><svg xmlns="http://www.w3.org/2000/svg" viewBox="0 0 410.31 478.63"><defs><style>.d{fill:#fff;}.e{fill:#54d6a7;}.f{fill:#022e3d;}.g{fill:#181817;}</style></defs><g id="a"/><g id="b"><g id="c"><g><g><path class="e" d="M373.43,252.21c.61-1.71,1.1-3.54,1.71-5.37,22.09-76.17,29.05-141.96,29.05-141.96l-.08-.03C361.08,84.5,246.1,25.52,205.12,6.11,152.14,33.51,59.9,77.18,6.07,104.86h.02S41.45,438.56,205.12,472.51h-.02c80.44-16.71,129.75-105.69,159.29-191.86"/><path class="g" d="M205.1,478.63c-.58,0-1.16-.08-1.69-.24C37.69,443.4,1.49,119.29,.03,105.5c-.26-2.5,1.04-4.92,3.28-6.07,26.35-13.56,62.51-31.24,97.48-48.35C137.42,33.18,175.29,14.66,202.33,.68c1.67-.87,3.7-.91,5.41-.1,20.18,9.56,57.35,28.24,96.69,48.01,39.55,19.87,80.45,40.41,102.29,50.74,2.85,.82,3.85,3.23,3.54,6.19-.07,.67-7.27,67.2-29.25,143.02l-.79,2.49c-.33,1.11-.68,2.21-1.05,3.25-1.16,3.17-4.62,4.78-7.82,3.67-3.17-1.14-4.82-4.65-3.67-7.82,.31-.86,.58-1.75,.86-2.66l.82-2.6c18.46-63.68,26.33-120.81,28.26-136.44-23.61-11.24-61.72-30.38-98.66-48.94-37.57-18.88-73.15-36.75-93.73-46.6-26.99,13.9-63.74,31.86-99.31,49.25-33.2,16.23-67.47,32.99-93.3,46.19,4.89,39.34,45.46,325.89,192.51,357.93,63.96-13.98,115.59-77.1,153.49-187.61,1.08-3.19,4.55-4.9,7.75-3.79,3.19,1.08,4.89,4.57,3.79,7.75-39.65,115.61-94.76,181.52-163.83,195.87-.42,.1-.83,.13-1.24,.13Z"/></g><path class="d" d="M76,341.33l221.69,21.54s-8.92,55.85-16.15,62.84c-7.24,6.99-56.64,46.09-76.92,44.28-20.28-1.81-116.5-59.79-128.62-128.66Z"/><path class="g" d="M205.1,478.63c-.58,0-1.16-.08-1.69-.24C37.69,443.4,1.49,119.29,.03,105.5c-.26-2.5,1.04-4.92,3.28-6.07,26.35-13.56,62.51-31.24,97.48-48.35C137.42,33.18,175.29,14.66,202.33,.68c1.67-.87,3.7-.91,5.41-.1,20.18,9.56,57.35,28.24,96.69,48.01,39.55,19.87,80.45,40.41,102.29,50.74,2.85,.82,3.85,3.23,3.54,6.19-.07,.67-7.27,67.2-29.25,143.02l-.79,2.49c-.33,1.11-.68,2.21-1.05,3.25-1.16,3.17-4.62,4.78-7.82,3.67-3.17-1.14-4.82-4.65-3.67-7.82,.31-.86,.58-1.75,.86-2.66l.82-2.6c18.46-63.68,26.33-120.81,28.26-136.44-23.61-11.24-61.72-30.38-98.66-48.94-37.57-18.88-73.15-36.75-93.73-46.6-26.99,13.9-63.74,31.86-99.31,49.25-33.2,16.23-67.47,32.99-93.3,46.19,4.89,39.34,45.46,325.89,192.51,357.93,63.96-13.98,115.59-77.1,153.49-187.61,1.08-3.19,4.55-4.9,7.75-3.79,3.19,1.08,4.89,4.57,3.79,7.75-39.65,115.61-94.76,181.52-163.83,195.87-.42,.1-.83,.13-1.24,.13Z"/><polygon class="d" points="315.41 221.93 381.11 249.41 390.4 270.08 302.97 295.33 315.41 221.93"/><path class="d" d="M205.11,462.56c-.58,0-1.16-.08-1.69-.24C47.44,429.34,13.39,124.52,12.02,111.55c-.26-2.5,1.04-4.92,3.28-6.07,24.78-12.75,58.8-29.38,91.69-45.47,34.4-16.82,69.97-34.21,95.35-47.33,1.67-.87,3.7-.92,5.41-.1,18.98,8.99,53.93,26.55,90.93,45.14,37.15,18.67,75.57,37.97,96.09,47.67,2.72,.91,3.83,3.34,3.53,6.19-.06,.62-6.84,63.19-27.51,134.48l-.73,2.32c-.32,1.04-.63,2.06-.99,3.06-1.11,3.17-4.6,4.9-7.8,3.7-3.17-1.12-4.83-4.61-3.7-7.8,.29-.81,.54-1.64,.8-2.5l.75-2.42c17.24-59.44,24.65-112.81,26.53-127.9-22.04-10.51-57.8-28.48-92.46-45.89-35.22-17.7-68.59-34.46-87.95-43.72-25.33,13.04-59.78,29.88-93.12,46.19-31.12,15.21-63.25,30.92-87.49,43.31,4.73,37.88,43,305.73,180.52,335.81,59.95-13.16,108.35-72.39,143.9-176.07,1.07-3.18,4.57-4.89,7.75-3.79,3.19,1.08,4.89,4.57,3.79,7.75-37.29,108.78-89.17,170.8-154.23,184.33-.42,.1-.83,.13-1.24,.13Z"/><path class="f" d="M205.1,478.63c-.58,0-1.16-.08-1.69-.24C37.69,443.4,1.49,119.29,.03,105.5c-.26-2.5,1.04-4.92,3.28-6.07,26.35-13.56,62.51-31.24,97.48-48.35C137.42,33.18,175.29,14.66,202.33,.68c1.67-.87,3.7-.91,5.41-.1,20.18,9.56,57.35,28.24,96.69,48.01,39.55,19.87,80.45,40.41,102.29,50.74,2.85,.82,3.85,3.23,3.54,6.19-.07,.67-7.27,67.2-29.25,143.02l-.79,2.49c-.33,1.11-.68,2.21-1.05,3.25-1.16,3.17-4.62,4.78-7.82,3.67-3.17-1.14-4.82-4.65-3.67-7.82,.31-.86,.58-1.75,.86-2.66l.82-2.6c18.46-63.68,26.33-120.81,28.26-136.44-23.61-11.24-61.72-30.38-98.66-48.94-37.57-18.88-73.15-36.75-93.73-46.6-26.99,13.9-63.74,31.86-99.31,49.25-33.2,16.23-67.47,32.99-93.3,46.19,4.89,39.34,45.46,325.89,192.51,357.93,63.96-13.98,115.59-77.1,153.49-187.61,1.08-3.19,4.55-4.9,7.75-3.79,3.19,1.08,4.89,4.57,3.79,7.75-39.65,115.61-94.76,181.52-163.83,195.87-.42,.1-.83,.13-1.24,.13Z"/><path class="f" d="M312.96,305.94c-2.48,0-4.8-1.51-5.72-3.97-1.17-3.16,.43-6.68,3.59-7.86l74.45-27.71c.57-.21,.87-.63,.88-1.24,.01-.61-.26-1.04-.81-1.28l-68.62-29.53c-3.1-1.32-4.53-4.92-3.19-8.01,1.32-3.11,4.9-4.57,8.01-3.19l68.62,29.53c5.11,2.19,8.33,7.22,8.2,12.79-.14,5.57-3.6,10.42-8.82,12.37l-74.45,27.71c-.7,.26-1.43,.38-2.13,.38Z"/><g><path class="d" d="M300.26,365.72l2.19-17.12,6.14-48.75,9.52-75.5c.61-4.64,.85-9.15,.85-13.67,0-53.83-40.16-100.82-95.08-107.66-59.44-7.57-113.76,34.67-121.33,94.11l-11.35,89.33,.24-1.67s-4.05,33.36-15.45,64.83"/><path class="f" d="M306.32,366.49l-12.11-1.55,17.86-141.36c.55-4.17,.81-8.38,.81-12.91,0-51.55-38.57-95.23-89.73-101.61-55.95-7.13-107.37,32.71-114.53,88.83l-11.13,87.61h.02c-.17,1.39-4.27,34.42-15.77,66.18l-11.47-4.15c9.61-26.53,13.93-54.84,14.9-61.85h-.01l11.35-89.34c8-62.78,65.38-107.35,128.16-99.39,57.24,7.13,100.41,56.02,100.41,113.72,0,5.07-.3,9.8-.91,14.47l-17.86,141.35Z"/></g><path class="f" d="M242.5,213.75c5.25-14.28,26.25-13.49,30.96,.97,1.35,4.13,2.09,8.62,1.71,13.3-.42,5.21-2.17,10.04-4.52,14.3-7.93,14.4-29.75,10.25-31.17-6.13-.22-2.54-.25-5.3-.02-8.29,.4-5.34,1.52-10.05,3.03-14.16Z"/><path class="f" d="M267.68,447.53c-1.48,0-2.96-.54-4.12-1.61-2.49-2.28-2.65-6.14-.37-8.62,26.21-28.54,31.78-78.22,31.84-78.72,.35-3.35,3.34-5.79,6.71-5.42,3.35,.36,5.78,3.36,5.42,6.71-.23,2.19-6.02,54.14-34.99,85.68-1.2,1.31-2.85,1.98-4.49,1.98Z"/><path class="f" d="M225.76,197.26c-1.28,0-2.55-.39-3.64-1.2-2.71-2.01-3.27-5.82-1.28-8.51,.49-.66,12-15.97,30.21-18.62,10.79-1.56,21.37,1.54,31.58,9.2,2.69,2.03,3.23,5.85,1.2,8.55-2,2.68-5.83,3.27-8.55,1.2-10.41-7.83-20.9-9.21-31.17-4.08-8.24,4.12-13.41,10.94-13.46,11.01-1.2,1.6-3.04,2.44-4.9,2.44Z"/></g></g></g></svg>